<svg height="151.18" viewBox="0 0 115.94 151.18" width="115.94" xmlns="http://www.w3.org/2000/svg"><path d="m1553.74 3680.54h4.02l1.8 9.44c.4 2.19.72 3.83 1.07 6.71h.11c.32-2.85.64-4.37 1.04-6.62l1.83-9.53h3.58l-4.71 21.39h-4.05zm14.99 0h9.96v3.46h-5.91v5.03h4.23v3.26h-4.23v6.19h6.17v3.37h-10.22zm11 10.62c0-7.48 2.35-10.88 6.69-10.88 3.64 0 5.35 2.33 6.02 7.83l-3.68.44c-.32-3.55-.95-4.67-2.34-4.67-1.74 0-2.61 1.79-2.61 7.26 0 5.44 1.01 7.51 2.78 7.51 1.62 0 2.49-1.24 2.63-4.2h-2.46v-3.11h5.94v10.51h-2.7l-.05-2.62h-.03a4.083 4.083 0 0 1 -4 2.82c-4.39 0-6.19-3.48-6.19-10.89zm17.78 10.69h-3.54l4.75-21.39h4.05l4.75 21.39h-3.99l-.93-4.78h-4.17zm4.19-9.5c-.4-2.28-.75-3.8-1.13-6.91h-.11c-.35 3.13-.7 4.57-1.1 6.82l-.38 2.02h3.1zm7.36-11.81h4.25l3.45 9.01c.58 1.7 1.07 3 1.41 4.23h.09v-13.24h3.21v21.31h-3.47l-4.2-10.43c-.57-1.49-1.24-3.39-1.47-4.14h-.09v14.57h-3.18zm-20.87-14.31a57.676 57.676 0 1 1 57.97-57.68 57.893 57.893 0 0 1 -57.97 57.68zm0-110.17a52.5 52.5 0 1 0 52.76 52.49 52.688 52.688 0 0 0 -52.76-52.49zm26.96 17.65a2.03 2.03 0 0 0 -3.67-.37c-6.98 12.69-22.21 16.57-20.26 27.32a9.506 9.506 0 0 0 3.75 5.75 44.949 44.949 0 0 1 10.05-12.09l-18.98 39.04-20.56-42.18a3.114 3.114 0 0 0 -4.05-1.42 3.075 3.075 0 0 0 -1.42 4.03l23.25 47.78a3.087 3.087 0 0 0 2.71 1.72 2.993 2.993 0 0 0 2.7-1.72l15.53-31.8c4.5.37 9.08-.82 11.78-3.96 5.48-6.42 2.33-22.84-.83-32.1z" fill="#312c2c" fill-rule="evenodd" transform="translate(-1530.22 -3550.88)"/></svg>