<svg height="180.87" viewBox="0 0 115.93 180.87" width="115.93" xmlns="http://www.w3.org/2000/svg"><path d="m1214.03 3692.61c0-7.49 2.34-10.88 6.68-10.88 3.65 0 5.36 2.33 6.02 7.83l-3.67.43c-.32-3.54-.96-4.66-2.35-4.66-1.73 0-2.6 1.78-2.6 7.25 0 5.44 1.01 7.51 2.78 7.51 1.62 0 2.49-1.24 2.63-4.21h-2.46v-3.1h5.93v10.5h-2.69l-.06-2.62h-.02a4.083 4.083 0 0 1 -4 2.82c-4.4 0-6.19-3.48-6.19-10.87zm15.43-10.62h4.05v17.92h5.96v3.37h-10.01zm10.97 14.59v-14.59h4.05v14.33c0 2.7.55 3.8 2.15 3.8 1.56 0 2.11-1.1 2.11-3.74v-14.39h3.79v14.53c0 4.57-1.59 6.99-5.99 6.99-4.46 0-6.11-2.47-6.11-6.93zm17.43-11.14h-3.82v-3.45h11.75v3.45h-3.85v17.84h-4.08zm9.61-3.45h9.96v3.45h-5.91v5.04h4.23v3.25h-4.23v6.18h6.17v3.37h-10.22zm12.13 0h4.26l3.44 9c.58 1.7 1.07 3 1.42 4.23h.08v-13.23h3.22v21.29h-3.48l-4.19-10.42c-.58-1.49-1.25-3.39-1.48-4.14h-.09v14.56h-3.18zm-49.92 28.78h9.92v3.46h-5.87v5.38h4.28v3.22h-4.28v9.23h-4.05zm23.76 21.29h-4.02l-2.69-7.59h-1.45v7.59h-3.97v-21.29h5.27c4 0 6.51 1.93 6.51 6.76 0 2.1-.6 4.52-2.75 5.76zm-6.86-10.81c1.74 0 2.55-.84 2.55-3.63 0-2.68-.81-3.39-2.61-3.39h-1.24v7.02zm8.89-10.48h9.96v3.46h-5.91v5.03h4.23v3.25h-4.23v6.19h6.17v3.36h-10.22zm12.13 0h9.96v3.46h-5.91v5.03h4.23v3.25h-4.23v6.19h6.17v3.36h-10.22zm-14.26-44.3c-31.96 0-57.97-25.86-57.97-57.64s26.01-57.64 57.97-57.64 57.98 25.86 57.98 57.64-26.01 57.64-57.98 57.64zm0-110.1a52.461 52.461 0 1 0 52.77 52.46 52.669 52.669 0 0 0 -52.77-52.46zm-40.91 90.67-3.33-3.99 85.16-70.28 3.33 3.99zm41.38-81.28s-6.65 9.84-8.19 13.91c-1.87 4.92 0 10.51 4.95 12.55a11.039 11.039 0 0 0 3.24.68 9.945 9.945 0 0 0 3.24-.68c4.95-2.04 6.83-7.63 4.95-12.55-1.53-4.07-8.19-13.91-8.19-13.91zm19.45 21.37s-9.72 4.92-13.13 7.47c-4.1 3.05-6.49 8.31-4.95 12.04a6.113 6.113 0 0 0 1.36 2.04 6.2 6.2 0 0 0 2.22.84c3.93.51 8.53-3.05 10.41-7.8 1.88-3.9 4.09-14.59 4.09-14.59zm0 19.34s-9.72 4.92-13.13 7.46c-4.1 3.06-6.49 8.32-4.95 12.05a5.964 5.964 0 0 0 1.36 2.03 6.049 6.049 0 0 0 2.22.85c3.93.51 8.53-3.05 10.41-7.8 1.88-3.9 4.09-14.59 4.09-14.59zm0 0s-9.72 4.92-13.13 7.46c-4.1 3.06-6.49 8.32-4.95 12.05a5.964 5.964 0 0 0 1.36 2.03 6.049 6.049 0 0 0 2.22.85c3.93.51 8.53-3.05 10.41-7.8 1.88-3.9 4.09-14.59 4.09-14.59zm0 19.34s-9.72 4.92-13.13 7.46c-4.1 3.06-6.49 8.32-4.95 12.05a6.065 6.065 0 0 0 1.36 2.03 6.049 6.049 0 0 0 2.22.85c3.93.51 8.53-3.05 10.41-7.8 1.88-3.9 4.09-14.59 4.09-14.59zm-39.58-38.68s9.72 4.92 13.14 7.47c4.09 3.05 6.48 8.31 4.94 12.04a6.113 6.113 0 0 1 -1.36 2.04 6.134 6.134 0 0 1 -2.22.84c-3.92.51-8.53-3.05-10.41-7.8-1.7-3.9-4.09-14.59-4.09-14.59zm0 19.34s9.72 4.92 13.14 7.46c4.09 3.06 6.48 8.32 4.94 12.05a5.964 5.964 0 0 1 -1.36 2.03 5.983 5.983 0 0 1 -2.22.85c-3.92.51-8.53-3.05-10.41-7.8-1.7-3.9-4.09-14.59-4.09-14.59zm0 0s9.72 4.92 13.14 7.46c4.09 3.06 6.48 8.32 4.94 12.05a5.964 5.964 0 0 1 -1.36 2.03 5.983 5.983 0 0 1 -2.22.85c-3.92.51-8.53-3.05-10.41-7.8-1.7-3.9-4.09-14.59-4.09-14.59zm0 19.34s9.72 4.92 13.14 7.46c4.09 3.06 6.48 8.32 4.94 12.05a6.065 6.065 0 0 1 -1.36 2.03 5.983 5.983 0 0 1 -2.22.85c-3.92.51-8.53-3.05-10.41-7.8-1.7-3.9-4.09-14.59-4.09-14.59zm19.79 35.62a.849.849 0 0 1 -.85-.85v-12.38a.85.85 0 0 1 1.7 0v12.38a.849.849 0 0 1 -.85.85z" fill="#312c2c" fill-rule="evenodd" transform="translate(-1195.38 -3551.19)"/></svg>