<svg height="170.1" viewBox="0 0 116 170.1" width="116" xmlns="http://www.w3.org/2000/svg"><path d="m494.908 6504.4a58.17 58.17 0 1 1 58.012-58.17 58.153 58.153 0 0 1 -58.012 58.17zm0-111.11a52.945 52.945 0 1 0 52.8 52.94 52.93 52.93 0 0 0 -52.8-52.94zm-41.219 121.92h-3.653v-2.54h10.147v2.54h-3.625v16.81h-2.869zm17.913 16.81h-2.843l-2.713-7.53h-1.879v7.53h-2.79v-19.35h4.223c3.65 0 5.738 1.73 5.738 5.83 0 2.17-.679 4.21-2.741 5.23zm-5.945-9.86c2.059 0 2.894-.91 2.894-3.61 0-2.56-.809-3.4-3-3.4h-1.384v7.01zm8.966 9.86h-2.5l4.381-19.43h2.79l4.384 19.43h-2.791l-.993-4.86h-4.276zm4.223-9.93c-.39-1.99-.728-3.41-1.042-5.94h-.079c-.312 2.56-.653 3.89-1.043 5.88l-.6 2.88h3.338zm5.946-9.42h3.079l3.728 9.7c.574 1.52 1.017 2.75 1.358 3.82h.052v-13.52h2.3v19.35h-2.453l-4.354-10.98c-.5-1.23-1.149-3.06-1.332-3.69h-.078v14.67h-2.3zm11.786 14.12 2.607-.5c.445 2.28 1.305 3.54 3 3.54a2.005 2.005 0 0 0 2.191-2.23c0-3.63-7.146-5.33-7.146-10.56a4.431 4.431 0 0 1 4.8-4.66c2.948 0 4.279 1.99 4.981 5.02l-2.528.66c-.521-2.09-1.2-3.14-2.555-3.14a1.74 1.74 0 0 0 -1.9 1.93c0 3.87 7.146 5.34 7.146 10.62a4.683 4.683 0 0 1 -5.008 4.84c-3.424 0-4.966-2.22-5.588-5.52zm16-14.12h8.424v2.54h-5.555v5.59h4.016v2.41h-4.016v8.81h-2.869zm9.778 19.35h-2.5l4.38-19.43h2.791l4.384 19.43h-2.791l-.993-4.86h-4.276zm4.225-9.93c-.391-1.99-.729-3.41-1.044-5.94h-.078c-.312 2.56-.653 3.89-1.043 5.88l-.6 2.88h3.338zm7.121-6.88h-3.652v-2.54h10.15v2.54h-3.625v16.81h-2.869v-16.81zm-58.702 23.6h8.424v2.54h-5.555v5.6h4.017v2.4h-4.017v8.82h-2.869zm19.843 19.36h-2.843l-2.713-7.54h-1.877v7.54h-2.791v-19.36h4.227c3.65 0 5.738 1.73 5.738 5.83 0 2.17-.679 4.22-2.741 5.24zm-5.945-9.86c2.06 0 2.9-.92 2.9-3.61 0-2.57-.81-3.4-3-3.4h-1.388v7.01h1.49zm7.5-9.5h8.45v2.54h-5.581v5.41h3.99v2.41h-3.99v6.54h5.869v2.46h-8.736v-19.36zm10.116 0h8.452v2.54h-5.582v5.41h3.99v2.41h-3.99v6.54h5.869v2.46h-8.739zm-11.605-61.54a20.907 20.907 0 0 1 -8.272-1.68 21.277 21.277 0 0 1 -11.3-11.35 21.288 21.288 0 0 1 0-16.58c.942-2.22 15.39-30.69 17.036-33.93l2.535-5 2.535 5c1.645 3.23 16.092 31.7 17.043 33.93a21.275 21.275 0 0 1 -19.572 29.61zm-41.068 7.52-3.33-4.02 85.213-70.93 3.33 4.02z" fill="#312c2c" fill-rule="evenodd" transform="translate(-436.906 -6388.06)"/></svg>