<svg height="151.18" viewBox="0 0 115.94 151.18" width="115.94" xmlns="http://www.w3.org/2000/svg"><path d="m1372.25 3680.52h4.26l3.44 9.01c.58 1.7 1.07 3 1.42 4.23h.09v-13.24h3.21v21.31h-3.48l-4.19-10.43c-.58-1.49-1.25-3.39-1.48-4.14h-.08v14.57h-3.19zm14.45 10.65c0-7.77 2.78-10.91 6.89-10.91 4.08 0 6.89 3.14 6.89 10.91s-2.81 10.89-6.89 10.89c-4.11 0-6.89-3.11-6.89-10.89zm9.64 0c0-4.95-.76-7.31-2.75-7.31s-2.78 2.36-2.78 7.31.78 7.4 2.78 7.4 2.75-2.45 2.75-7.4zm6.17-10.65h4.25l3.44 9.01c.58 1.7 1.07 3 1.42 4.23h.09v-13.24h3.21v21.31h-3.47l-4.2-10.43c-.58-1.49-1.24-3.39-1.47-4.14h-.09v14.57h-3.18zm19.65 10.63c0-7.49 2.35-10.89 6.69-10.89 3.65 0 5.35 2.34 6.02 7.83l-3.68.44c-.32-3.55-.95-4.67-2.34-4.67-1.74 0-2.61 1.79-2.61 7.26 0 5.44 1.02 7.51 2.78 7.51 1.62 0 2.49-1.24 2.64-4.2h-2.46v-3.11h5.93v10.51h-2.69l-.06-2.62h-.03a4.079 4.079 0 0 1 -3.99 2.82c-4.4 0-6.2-3.49-6.2-10.88zm15.43-10.63h4.89l2.78 15.09h.12l2.78-15.09h4.92v21.31h-3.65v-15.06h-.09c-.2 2.07-.58 3.63-.92 5.44l-1.83 9.62h-2.98l-1.85-9.88c-.35-1.7-.72-3.63-.9-5.18h-.08v15.06h-3.19zm17.55 10.65c0-7.77 2.78-10.91 6.89-10.91 4.08 0 6.88 3.14 6.88 10.91s-2.8 10.89-6.88 10.89c-4.11 0-6.89-3.11-6.89-10.89zm9.64 0c0-4.95-.76-7.31-2.75-7.31s-2.78 2.36-2.78 7.31.78 7.4 2.78 7.4 2.75-2.45 2.75-7.4zm-78.69-82.35c0-14.97 3.18-20.52 9.85-20.52 6.46 0 8.49 4.79 8.98 15.46l-6.51.27c-.11-7.24-.71-9.25-2.47-9.25-2.35 0-2.68 4.19-2.68 14.04s.17 14.32 3.07 14.32c2.3 0 2.79-2.45 2.9-8.39h-3.18v-5.55h9.14v19.76h-3.99l-.11-4.52h-.06a6.086 6.086 0 0 1 -6.13 4.8c-6.34 0-8.81-5.45-8.81-20.42zm22.27-20.14h8.38l3.23 24.98h.05l3.23-24.98h8.37v40.28h-6.67v-18.07c0-2.88.05-5.72.05-7.84h-.11c-.22 2.94-.6 6.21-.87 8.38l-2.63 17.53h-3.67l-2.68-17.47c-.33-2.4-.55-4.63-.87-8.38h-.11c.05 1.14.05 4.84.05 7.78v18.07h-5.75zm25.94 20.14c0-14.97 3.28-20.52 10.01-20.52s10.02 5.55 10.02 20.52-3.28 20.52-10.02 20.52-10.01-5.55-10.01-20.52zm12.81 0c0-10.56-.39-14.04-2.8-14.04-2.35 0-2.73 3.48-2.73 14.04s.38 14.21 2.73 14.21c2.41 0 2.8-3.65 2.8-14.21zm-26.87 57.4a57.671 57.671 0 1 1 57.97-57.67 57.882 57.882 0 0 1 -57.97 57.67zm0-110.15a52.481 52.481 0 1 0 52.76 52.48 52.68 52.68 0 0 0 -52.76-52.48zm-40.92 90.7-3.33-3.99 85.16-70.31 3.33 3.99z" fill="#312c2c" fill-rule="evenodd" transform="translate(-1362.28 -3550.88)"/></svg>