<svg height="151.16" viewBox="0 0 115.938 151.16" width="115.938" xmlns="http://www.w3.org/2000/svg"><path d="m278.3 6518.35h4.254l3.444 9.01c.578 1.7 1.069 2.99 1.418 4.23h.084v-13.24h3.212v21.3h-3.472l-4.2-10.42c-.579-1.5-1.245-3.4-1.477-4.15h-.085v14.57h-3.178zm14.445 10.65c0-7.77 2.778-10.91 6.888-10.91 4.08 0 6.888 3.14 6.888 10.91s-2.808 10.88-6.888 10.88c-4.11 0-6.888-3.11-6.888-10.88zm9.637 0c0-4.95-.753-7.31-2.749-7.31s-2.778 2.36-2.778 7.31.781 7.4 2.778 7.4 2.749-2.45 2.749-7.4zm6.169-10.65h4.255l3.443 9.01c.579 1.7 1.07 2.99 1.418 4.23h.087v-13.24h3.212v21.3h-3.472l-4.2-10.42c-.58-1.5-1.245-3.4-1.477-4.15h-.086v14.57h-3.184v-21.3zm19.658 10.62c0-7.49 2.343-10.88 6.684-10.88 3.647 0 5.354 2.33 6.02 7.83l-3.676.43c-.317-3.54-.954-4.66-2.344-4.66-1.737 0-2.6 1.78-2.6 7.25 0 5.44 1.012 7.51 2.778 7.51 1.621 0 2.489-1.23 2.633-4.2h-2.459v-3.11h5.933v10.51h-2.693l-.057-2.62h-.028a4.077 4.077 0 0 1 -3.994 2.82c-4.406 0-6.197-3.48-6.197-10.88zm15.43-10.62h4.891l2.778 15.08h.115l2.779-15.08h4.92v21.3h-3.648v-15.06h-.086a54.466 54.466 0 0 1 -.926 5.44l-1.823 9.62h-2.981l-1.853-9.87c-.347-1.7-.723-3.63-.9-5.19h-.086v15.06h-3.183v-21.3zm17.543 10.65c0-7.77 2.779-10.91 6.888-10.91 4.081 0 6.889 3.14 6.889 10.91s-2.808 10.88-6.889 10.88c-4.109 0-6.888-3.11-6.888-10.88zm9.638 0c0-4.95-.753-7.31-2.75-7.31s-2.777 2.36-2.777 7.31.781 7.4 2.777 7.4 2.75-2.45 2.75-7.4zm-78.681-82.35c0-14.97 3.174-20.53 9.851-20.53 6.457 0 8.482 4.79 8.975 15.46l-6.513.28c-.109-7.24-.711-9.26-2.462-9.26-2.353 0-2.682 4.19-2.682 14.05s.164 14.31 3.064 14.31c2.3 0 2.793-2.45 2.9-8.38h-3.172v-5.55h9.14v19.76h-3.995l-.109-4.52h-.056a6.083 6.083 0 0 1 -6.129 4.79c-6.351 0-8.812-5.44-8.812-20.41zm22.271-20.15h8.373l3.229 24.99h.054l3.229-24.99h8.373v40.29h-6.677v-18.08c0-2.88.055-5.71.055-7.83h-.108c-.22 2.94-.6 6.2-.876 8.38l-2.627 17.53h-3.668l-2.681-17.48c-.328-2.39-.547-4.62-.875-8.38h-.111c.054 1.14.054 4.85.054 7.78v18.08h-5.744zm25.934 20.15c0-14.97 3.284-20.53 10.015-20.53s10.016 5.56 10.016 20.53-3.284 20.52-10.016 20.52-10.015-5.55-10.015-20.52zm12.807 0c0-10.57-.383-14.05-2.792-14.05-2.353 0-2.735 3.48-2.735 14.05s.382 14.2 2.735 14.2c2.409 0 2.792-3.64 2.792-14.2zm-26.866 57.39a57.666 57.666 0 1 1 57.975-57.67 57.888 57.888 0 0 1 -57.975 57.67zm0-110.15a52.486 52.486 0 1 0 52.764 52.48 52.681 52.681 0 0 0 -52.764-52.48zm-40.916 90.71-3.329-3.99 85.159-70.32 3.33 3.99z" fill="#312c2c" fill-rule="evenodd" transform="translate(-268.312 -6388.72)"/></svg>