<svg height="180.87" viewBox="0 0 115.93 180.87" width="115.93" xmlns="http://www.w3.org/2000/svg"><path d="m1735.65 3697.06 3.53-.63c.46 2.36 1.15 3.77 2.83 3.77a1.827 1.827 0 0 0 1.94-1.98c0-3.66-7.81-5.24-7.81-11.08 0-3.37 2.26-5.47 5.76-5.47 3.59 0 5.06 2.36 5.9 5.96l-3.59.89c-.49-2.22-1.13-3.37-2.46-3.37a1.557 1.557 0 0 0 -1.65 1.73c0 3.62 7.82 5.21 7.82 11.11 0 3.3-2.38 5.58-5.94 5.58-4.22 0-5.61-2.79-6.33-6.51zm13.51-4.43c0-7.77 2.78-10.9 6.89-10.9 4.08 0 6.89 3.13 6.89 10.9s-2.81 10.88-6.89 10.88c-4.11 0-6.89-3.11-6.89-10.88zm9.64 0c0-4.94-.75-7.3-2.75-7.3s-2.78 2.36-2.78 7.3.78 7.4 2.78 7.4 2.75-2.45 2.75-7.4zm8.49 2.97-4.66-13.61h4.11l2.72 9.18h.08l2.73-9.18h3.81l-4.71 13.61v7.68h-4.08zm-35.83 15.17h9.93v3.46h-5.88v5.38h4.29v3.22h-4.29v9.23h-4.05zm23.77 21.29h-4.03l-2.69-7.59h-1.45v7.59h-3.96v-21.29h5.27c3.99 0 6.51 1.93 6.51 6.76 0 2.1-.61 4.52-2.75 5.76zm-6.86-10.82c1.73 0 2.54-.83 2.54-3.62 0-2.68-.81-3.39-2.6-3.39h-1.25v7.01zm8.89-10.47h9.95v3.46h-5.9v5.03h4.22v3.25h-4.22v6.19h6.16v3.36h-10.21zm12.13 0h9.95v3.46h-5.9v5.03h4.22v3.25h-4.22v6.19h6.16v3.36h-10.21zm-14.26-44.3c-31.97 0-57.98-25.86-57.98-57.64s26.01-57.64 57.98-57.64a57.641 57.641 0 1 1 0 115.28zm0-110.1a52.461 52.461 0 1 0 52.76 52.46 52.669 52.669 0 0 0 -52.76-52.46zm-32.81 38.83s-.61 5.69-.69 8.55c-.11 3.87-1.49 8.14.26 11.59 2.11 4.18 7.84 5.26 11.15 8.59 2.78 2.8 4.12 6.91 7.17 9.43a22.688 22.688 0 0 0 9.18 4.57c4.14.96 8.54-.59 12.76-.05 4.96.63 9.66 5.09 14.5 3.84 2.3-.59 3.43-3.29 5.14-4.93s5.13-4.93 5.13-4.93-6.73-9.35-11.83-11.33c-3.59-1.4-7.84 1.23-11.57.25-3.59-.95-6.27-3.95-9.54-5.68-3.36-1.78-7.48-2.33-10.36-4.83-2.92-2.53-3.29-7.31-6.33-9.71-4.15-3.28-14.97-5.36-14.97-5.36zm7.84 10.74c1.7.29 3.61.52 4.91 1.69a6.36 6.36 0 0 1 1.63 3.38c.26 1.09.58 2.41 0 3.37a3.926 3.926 0 0 1 -3.27 1.69c-2.45 0-4.83-1.62-6.54-3.38a5.09 5.09 0 0 1 -1.64-3.37 4.152 4.152 0 0 1 1.64-3.38 2.493 2.493 0 0 1 1.58-.29c.57.05 1.15.2 1.69.29zm22.32 17.42a5.181 5.181 0 0 1 1.64 3.38 3.914 3.914 0 0 1 -1.64 3.37c-2.05 1.15-5.02.57-7.03-.66a7.479 7.479 0 0 1 -2.78-4.4 4.353 4.353 0 0 1 0-3.38 3.981 3.981 0 0 1 3.27-1.68c2.45 0 4.83 1.62 6.54 3.37zm16.5 3.41c1.51.25 3.32.36 4.36 1.48 1.38 1.5 2.3 4.07 1.45 5.91a3.242 3.242 0 0 1 -2.9 1.48c-2.18 0-4.3-1.41-5.82-2.95a4.529 4.529 0 0 1 -1.45-2.96 3.63 3.63 0 0 1 1.45-2.96 2.293 2.293 0 0 1 1.4-.25c.51.05 1.03.18 1.51.25zm-31.83-55.05s-3 4.98-3.74 7.75c-1.35 5.14-2.76 10.87-1.06 15.91.03.08.08.16.11.23a22.2 22.2 0 0 1 6.26 3.17 14.067 14.067 0 0 1 3.87 5.64 12.555 12.555 0 0 0 2.54 4.12c2.18 1.89 6.06 2.5 9.94 4.55 3.78 2 6.36 4.78 9.04 5.48a12.63 12.63 0 0 0 4.83-.32c2.01-.37 4.45-.83 6.99.15a19.625 19.625 0 0 1 6.38 4.57c-1.22-3.17-2.8-6.71-4.62-8.68-2.78-2.94-7.57-2.06-10.99-3.9a16.666 16.666 0 0 1 -4.58-3.49c-1.27-1.44-1.66-3.51-2.89-4.99-1.7-2.04-4.81-2.85-6.08-5.19-1.3-2.38-.35-5.44-1.06-8.05a19.742 19.742 0 0 0 -2.78-6.57c-3.14-4.3-12.16-10.38-12.16-10.38zm-14.83 23.48s-.61 5.69-.69 8.55c-.11 3.87-1.49 8.14.26 11.59 2.11 4.18 7.84 5.26 11.15 8.59 2.78 2.8 4.12 6.91 7.17 9.43a22.688 22.688 0 0 0 9.18 4.57c4.14.96 8.54-.59 12.76-.05 4.96.63 9.66 5.09 14.5 3.84 2.3-.59 3.43-3.29 5.14-4.93s5.13-4.93 5.13-4.93-6.73-9.35-11.83-11.33c-3.59-1.4-7.84 1.23-11.57.25-3.59-.95-6.27-3.95-9.54-5.68-3.36-1.78-7.48-2.33-10.36-4.83-2.92-2.53-3.29-7.31-6.33-9.71-4.15-3.28-14.97-5.36-14.97-5.36zm7.84 10.74c1.7.29 3.61.52 4.91 1.69a6.36 6.36 0 0 1 1.63 3.38c.26 1.09.58 2.41 0 3.37a3.926 3.926 0 0 1 -3.27 1.69c-2.45 0-4.83-1.62-6.54-3.38a5.09 5.09 0 0 1 -1.64-3.37 4.152 4.152 0 0 1 1.64-3.38 2.493 2.493 0 0 1 1.58-.29c.57.05 1.15.2 1.69.29zm22.32 17.42a5.181 5.181 0 0 1 1.64 3.38 3.914 3.914 0 0 1 -1.64 3.37c-2.05 1.15-5.02.57-7.03-.66a7.479 7.479 0 0 1 -2.78-4.4 4.353 4.353 0 0 1 0-3.38 3.981 3.981 0 0 1 3.27-1.68c2.45 0 4.83 1.62 6.54 3.37zm16.5 3.41c1.51.25 3.32.36 4.36 1.48 1.38 1.5 2.3 4.07 1.45 5.91a3.242 3.242 0 0 1 -2.9 1.48c-2.18 0-4.3-1.41-5.82-2.95a4.529 4.529 0 0 1 -1.45-2.96 3.63 3.63 0 0 1 1.45-2.96 2.293 2.293 0 0 1 1.4-.25c.51.05 1.03.18 1.51.25zm-31.83-55.05s-3 4.98-3.74 7.75c-1.35 5.14-2.76 10.87-1.06 15.91.03.08.08.16.11.23a22.2 22.2 0 0 1 6.26 3.17 14.067 14.067 0 0 1 3.87 5.64 12.555 12.555 0 0 0 2.54 4.12c2.18 1.89 6.06 2.5 9.94 4.55 3.78 2 6.36 4.78 9.04 5.48a12.63 12.63 0 0 0 4.83-.32c2.01-.37 4.45-.83 6.99.15a19.625 19.625 0 0 1 6.38 4.57c-1.22-3.17-2.8-6.71-4.62-8.68-2.78-2.94-7.57-2.06-10.99-3.9a16.666 16.666 0 0 1 -4.58-3.49c-1.27-1.44-1.66-3.51-2.89-4.99-1.7-2.04-4.81-2.85-6.08-5.19-1.3-2.38-.35-5.44-1.06-8.05a19.742 19.742 0 0 0 -2.78-6.57c-3.14-4.3-12.16-10.38-12.16-10.38zm-22.94 75.32-3.33-3.99 85.16-70.28 3.33 3.99z" fill="#312c2c" fill-rule="evenodd" transform="translate(-1697.16 -3551.19)"/></svg>